<?xml version="1.0" encoding="utf-8"?>
<!-- Generator: Adobe Illustrator 26.1.0, SVG Export Plug-In . SVG Version: 6.00 Build 0)  -->
<svg version="1.1" id="Capa_1" xmlns="http://www.w3.org/2000/svg" xmlns:xlink="http://www.w3.org/1999/xlink" x="0px" y="0px"
	 viewBox="0 0 35 35" style="enable-background:new 0 0 35 35;" xml:space="preserve">
<style type="text/css">
	.st0{fill:#FF0000;}
</style>
<path class="st0" d="M21,17.4l-1.6-1.6l1.4-1.4c0.2-0.2,0.4-0.6,0.4-0.9s-0.1-0.7-0.4-0.9c-0.5-0.5-1.3-0.5-1.8,0L17.6,14L16,12.3
	c-0.5-0.5-1.3-0.5-1.8,0c-0.2,0.2-0.4,0.6-0.4,0.9s0.1,0.7,0.4,0.9l1.6,1.6L14,17.6c-0.2,0.2-0.4,0.6-0.4,0.9c0,0.3,0.1,0.7,0.4,0.9
	c0.3,0.3,0.6,0.4,0.9,0.4c0.3,0,0.7-0.1,0.9-0.4l1.8-1.8l1.6,1.6c0.5,0.5,1.3,0.5,1.8,0C21.5,18.7,21.5,17.9,21,17.4z"/>
<path class="st0" d="M28.2,9C28.2,8.9,28.2,8.9,28.2,9c0-0.7-0.5-1.3-1.1-1.4c-0.2-0.1-0.4-0.1-0.6,0c-0.6,0.1-1,0.6-1.1,1.2
	c-0.5,3.1-1,6.1-1.5,9.2l-0.3,1.9c-0.5,2.7-0.9,5.5-1.4,8.2c-0.1,0.6-0.4,0.9-1.1,0.9h-7.2c-0.7,0-1-0.2-1.1-0.9
	c-0.5-2.7-0.9-5.5-1.4-8.2l-0.3-1.9c-0.5-3.1-1-6.1-1.5-9.2c-0.1-0.6-0.5-1-1.1-1.1c-0.2,0-0.4,0-0.6,0C7.3,7.7,6.8,8.3,6.8,8.9
	c0,0,0,0,0,0l0,0l3.6,21.8c0.2,1,0.7,1.4,1.7,1.4l6.6,0l4.1,0c1,0,1.5-0.4,1.7-1.4c0.6-3.4,1.1-6.8,1.7-10.1L28.2,9L28.2,9z"/>
<path class="st0" d="M27.9,2.9L27.9,2.9l-20.4,0l0,0c-0.1,0-0.2,0-0.2,0C6.7,2.9,6.2,3.3,6,3.8C5.9,4,5.8,4.3,5.9,4.5
	c0,0.7,0.5,1.2,1.2,1.4l0,0c0,0,0,0,0.1,0l0,0l20.4,0l0,0c0.1,0,0.2,0,0.2,0c0.6,0,1.1-0.4,1.3-0.9c0.1-0.2,0.1-0.4,0.1-0.7
	C29.1,3.6,28.6,3.1,27.9,2.9L27.9,2.9C27.9,2.9,27.9,2.9,27.9,2.9z"/>
</svg>
