<?xml version="1.0" encoding="utf-8"?>
<!-- Generator: Adobe Illustrator 26.1.0, SVG Export Plug-In . SVG Version: 6.00 Build 0)  -->
<svg version="1.1" id="Capa_1" xmlns="http://www.w3.org/2000/svg" xmlns:xlink="http://www.w3.org/1999/xlink" x="0px" y="0px"
	 viewBox="0 0 35 35" style="enable-background:new 0 0 35 35;" xml:space="preserve">
<style type="text/css">
	.st0{fill:#FF0000;}
</style>
<path class="st0" d="M25.4,22.7L20,17.2l4.9-4.9c0.6-0.6,0.6-1.6,0-2.2s-1.6-0.6-2.2,0L17.8,15l-5.4-5.4c-0.6-0.6-1.6-0.6-2.2,0
	c-0.6,0.6-0.6,1.6,0,2.2l5.4,5.4l-6,6c-0.6,0.6-0.6,1.6,0,2.2c0.6,0.6,1.6,0.6,2.2,0l6-6l5.4,5.4c0.6,0.6,1.6,0.6,2.2,0
	S26,23.3,25.4,22.7z"/>
</svg>
