<?xml version="1.0" encoding="utf-8"?>
<!-- Generator: Adobe Illustrator 26.1.0, SVG Export Plug-In . SVG Version: 6.00 Build 0)  -->
<svg version="1.1" id="Capa_1" xmlns="http://www.w3.org/2000/svg" xmlns:xlink="http://www.w3.org/1999/xlink" x="0px" y="0px"
	 viewBox="0 0 35 35" style="enable-background:new 0 0 35 35;" xml:space="preserve">
<style type="text/css">
	.st0{fill:#FFFFFF;}
</style>
<path class="st0" d="M28.6,23.4l-7.1-7.1l6.4-6.4c0.8-0.8,0.8-2.1,0-2.8c-0.8-0.8-2.1-0.8-2.8,0l-6.4,6.4l-7.1-7.1
	c-0.8-0.8-2.1-0.8-2.8,0S8,8.4,8.8,9.2l7.1,7.1l-7.8,7.8c-0.8,0.8-0.8,2.1,0,2.8c0.8,0.8,2.1,0.8,2.8,0l7.8-7.8l7.1,7.1
	c0.8,0.8,2.1,0.8,2.8,0C29.4,25.4,29.4,24.1,28.6,23.4z"/>
</svg>
