<?xml version="1.0" encoding="utf-8"?>
<!-- Generator: Adobe Illustrator 26.1.0, SVG Export Plug-In . SVG Version: 6.00 Build 0)  -->
<svg version="1.1" id="Capa_1" xmlns="http://www.w3.org/2000/svg" xmlns:xlink="http://www.w3.org/1999/xlink" x="0px" y="0px"
	 viewBox="0 0 35 35" style="enable-background:new 0 0 35 35;" xml:space="preserve">
<style type="text/css">
	.st0{fill:#FF0000;}
</style>
<path class="st0" d="M23.9,28.3c-1.09,0-1.96,0.87-1.96,1.96s0.87,1.97,1.95,1.98c1.06,0.01,1.97-0.89,1.98-1.97
	C25.87,29.19,24.98,28.3,23.9,28.3z"/>
<path class="st0" d="M13.03,28.3c-1.09,0-1.96,0.87-1.96,1.96s0.87,1.97,1.95,1.98c1.06,0.01,1.97-0.89,1.98-1.97
	C15,29.19,14.11,28.3,13.03,28.3z"/>
<path class="st0" d="M33.58,16.47c-0.67,1.44-1.38,2.85-2.18,4.21c-0.72,1.39-1.38,2.43-1.91,3.2c-0.08,0.11-0.14,0.2-0.21,0.29
	c-0.19,0.27-0.37,0.49-0.53,0.7c-0.09,0.11-0.17,0.21-0.25,0.3c-0.19,0.23-0.42,0.47-0.7,0.69c-0.03,0.04-0.06,0.06-0.09,0.08
	c-0.64,0.48-1.53,0.86-2.71,1V27l-2.64,0.04c-0.5,0.02-1.24,0.05-2.12,0.03l-0.28,0.01l0.01-0.01c-3.73-0.08-9.66-0.81-10.59-4.55
	l-2.29-8.88c-0.01-0.04-0.02-0.07-0.03-0.11C6.35,10.79,5.32,9.51,4.79,9C3.65,8.06,2.43,7.19,1.26,6.28
	c-0.64-0.49-0.88-1.09-0.7-1.85c0.15-0.6,0.67-1.1,1.32-1.14C2.26,3.27,2.7,3.34,3,3.54c1.77,1.2,3.5,2.45,5.05,3.92
	C8.14,7.55,8.59,8.02,9.1,8.84c0.51,0.81,1.1,1.96,1.48,3.42l1.13,4.37l0.82,3.16l0.05,0.2c0.2,0.67,1.04,2.77,3.74,3.01h6.86
	c2.13-0.12,3.27-1.27,3.76-1.92c0.89-1.4,1.59-2.58,1.69-2.76c0.6-1.08,1.17-2.17,1.77-3.26c0.41-0.75,1.02-1.1,1.84-1.03
	c0.67,0.06,1.29,0.53,1.43,1.22C33.76,15.63,33.76,16.12,33.58,16.47z"/>
</svg>
