<?xml version="1.0" encoding="utf-8"?>
<!-- Generator: Adobe Illustrator 26.1.0, SVG Export Plug-In . SVG Version: 6.00 Build 0)  -->
<svg version="1.1" id="Capa_1" xmlns="http://www.w3.org/2000/svg" xmlns:xlink="http://www.w3.org/1999/xlink" x="0px" y="0px"
	 viewBox="0 0 105 40" style="enable-background:new 0 0 105 40;" xml:space="preserve">
<style type="text/css">
	.st0{fill:#D1111C;}
	.st1{opacity:0.2;}
</style>
<g>
	<path class="st0" d="M24.74,28.06c1.12-0.31,2.04-0.75,2.76-1.33c0.73-0.58,1.31-1.3,1.75-2.16c0.44-0.86,0.8-1.86,1.07-2.98
		c0.08-0.32,0.14-0.63,0.18-0.91c0.04-0.28,0.07-0.56,0.08-0.85c0.01-0.28,0.02-0.54,0.02-0.79c0-0.97-0.15-1.75-0.44-2.34
		c-0.3-0.59-0.74-1.06-1.33-1.41c-0.59-0.35-1.3-0.63-2.14-0.85v-0.16c1.72-0.35,3.11-0.98,4.15-1.9c1.05-0.91,1.79-2.3,2.22-4.15
		c0.08-0.4,0.14-0.78,0.18-1.13c0.04-0.35,0.06-0.7,0.06-1.05c0-1.13-0.28-2.09-0.83-2.88c-0.55-0.79-1.37-1.39-2.46-1.79
		c-1.09-0.4-2.41-0.6-3.97-0.6H11.89L6.01,28.52h14.64C22.26,28.52,23.62,28.37,24.74,28.06z M18.83,6.62h3.23
		c0.94,0,1.61,0.09,2,0.26c0.39,0.18,0.58,0.53,0.58,1.07c0,0.19-0.02,0.4-0.06,0.63c-0.04,0.23-0.09,0.48-0.14,0.75
		c-0.13,0.73-0.32,1.28-0.54,1.65c-0.23,0.38-0.57,0.64-1.03,0.79c-0.46,0.15-1.1,0.22-1.94,0.22H17.7L18.83,6.62z M15.44,22.68
		l1.21-5.65h3.27c0.94,0,1.61,0.09,2,0.28c0.39,0.19,0.58,0.58,0.58,1.17c0,0.16-0.02,0.36-0.06,0.6c-0.04,0.24-0.09,0.51-0.14,0.81
		c-0.16,0.78-0.36,1.36-0.58,1.75c-0.23,0.39-0.57,0.66-1.03,0.81c-0.46,0.15-1.12,0.22-1.98,0.22H15.44z"/>
	<polygon class="st0" points="37.93,27.27 47.92,19.6 50.57,7.15 57.83,7.15 59.2,0.78 36.37,0.78 35,7.15 42.22,7.15 	"/>
	<path class="st0" d="M95.29,0.78L95.29,0.78l-1.6,0l0,0.02l-4.18,1.76L83.69,5l-13.77,5.79l-1.61,0.68l0,0h-0.28l2.26-10.69h-8.31
		l-3.11,14.66l-0.88,0.37l-0.01-0.01l-0.03,0.03l-7.7,5.92L35.6,32.99H5.06l-1.29,6.07h33.89l0.45-0.35l18.9-14.52l0,0l-0.92,4.33
		h8.27l2.07-9.69l1.91-0.8l0,0l8.54,20.92h9.15L75.71,14.94l18.52-7.79l1.18-0.49v0l0.05-0.02l0.95-0.4l0,0l0,0l0,0l0,0h0.01l0,0
		l4.88-2.05l0.72-3.4H95.29z M95.29,0.78L95.29,0.78L95.29,0.78L95.29,0.78z"/>
</g>
<polygon class="st0" points="102,0.78 101.28,4.17 96.4,6.23 96.4,6.23 96.39,6.23 96.4,6.24 94.23,7.15 75.71,14.94 68.34,18.04 
	66.43,18.84 61.02,21.11 57.01,24.19 38.12,38.71 37.66,39.06 3.77,39.06 5.06,32.99 35.6,32.99 50.25,21.74 57.95,15.82 
	57.98,15.8 57.99,15.81 58.87,15.43 68.31,11.46 69.92,10.79 83.69,5 89.51,2.55 93.72,0.78 95.29,0.78 95.29,0.78 "/>
<polygon class="st1" points="102,0.78 101.28,4.17 96.4,6.23 96.4,6.23 96.39,6.23 96.4,6.24 94.23,7.15 75.71,14.94 68.34,18.04 
	66.43,18.84 61.02,21.11 57.01,24.19 38.12,38.71 37.66,39.06 3.77,39.06 5.06,32.99 35.6,32.99 50.25,21.74 57.95,15.82 
	57.98,15.8 57.99,15.81 58.87,15.43 68.31,11.46 69.92,10.79 83.69,5 89.51,2.55 93.72,0.78 95.29,0.78 95.29,0.78 "/>
</svg>
